<?xml version="1.0" encoding="UTF-8" standalone="no"?>
<!DOCTYPE svg PUBLIC "-//W3C//DTD SVG 1.1//EN"
 "http://www.w3.org/Graphics/SVG/1.1/DTD/svg11.dtd">
<!-- Generated by graphviz version 14.1.5 (0)
 -->
<!-- Pages: 1 -->
<svg width="518pt" height="4117pt"
 viewBox="0.00 0.00 518.00 4117.00" xmlns="http://www.w3.org/2000/svg" xmlns:xlink="http://www.w3.org/1999/xlink">
<g id="graph0" class="graph" transform="scale(1 1) rotate(0) translate(36 4081)">
<polygon fill="white" stroke="none" points="-36,36 -36,-4081 482,-4081 482,36 -36,36"/>
<g id="clust1" class="cluster">
<title>cluster_0</title>
<path fill="#dbeafe" stroke="#dbeafe" d="M380,-8C380,-8 426,-8 426,-8 432,-8 438,-14 438,-20 438,-20 438,-233 438,-233 438,-239 432,-245 426,-245 426,-245 380,-245 380,-245 374,-245 368,-239 368,-233 368,-233 368,-20 368,-20 368,-14 374,-8 380,-8"/>
<text xml:space="preserve" text-anchor="middle" x="403" y="-231.5" font-family="sans" font-size="10.00">1&#45;总起</text>
</g>
<g id="clust2" class="cluster">
<title>cluster_1</title>
<path fill="#dcfce7" stroke="#dcfce7" d="M20,-91C20,-91 246,-91 246,-91 252,-91 258,-97 258,-103 258,-103 258,-262 258,-262 258,-268 252,-274 246,-274 246,-274 20,-274 20,-274 14,-274 8,-268 8,-262 8,-262 8,-103 8,-103 8,-97 14,-91 20,-91"/>
<text xml:space="preserve" text-anchor="middle" x="133" y="-260.5" font-family="sans" font-size="10.00">2&#45;资源</text>
</g>
<g id="clust3" class="cluster">
<title>cluster_2</title>
<path fill="#fef3c7" stroke="#fef3c7" d="M20,-282C20,-282 156,-282 156,-282 162,-282 168,-288 168,-294 168,-294 168,-885 168,-885 168,-891 162,-897 156,-897 156,-897 20,-897 20,-897 14,-897 8,-891 8,-885 8,-885 8,-294 8,-294 8,-288 14,-282 20,-282"/>
<text xml:space="preserve" text-anchor="middle" x="88" y="-883.5" font-family="sans" font-size="10.00">3&#45;权限</text>
</g>
<g id="clust4" class="cluster">
<title>cluster_3</title>
<path fill="#fce7f3" stroke="#fce7f3" d="M110,-905C110,-905 246,-905 246,-905 252,-905 258,-911 258,-917 258,-917 258,-2426 258,-2426 258,-2432 252,-2438 246,-2438 246,-2438 110,-2438 110,-2438 104,-2438 98,-2432 98,-2426 98,-2426 98,-917 98,-917 98,-911 104,-905 110,-905"/>
<text xml:space="preserve" text-anchor="middle" x="178" y="-2424.5" font-family="sans" font-size="10.00">4&#45;调度</text>
</g>
<g id="clust5" class="cluster">
<title>cluster_4</title>
<path fill="#e0e7ff" stroke="#e0e7ff" d="M20,-3069C20,-3069 246,-3069 246,-3069 252,-3069 258,-3075 258,-3081 258,-3081 258,-3672 258,-3672 258,-3678 252,-3684 246,-3684 246,-3684 20,-3684 20,-3684 14,-3684 8,-3678 8,-3672 8,-3672 8,-3081 8,-3081 8,-3075 14,-3069 20,-3069"/>
<text xml:space="preserve" text-anchor="middle" x="133" y="-3670.5" font-family="sans" font-size="10.00">5&#45;结构</text>
</g>
<g id="clust6" class="cluster">
<title>cluster_5</title>
<path fill="#f3e8ff" stroke="#f3e8ff" d="M20,-8C20,-8 336,-8 336,-8 342,-8 348,-14 348,-20 348,-20 348,-71 348,-71 348,-77 342,-83 336,-83 336,-83 20,-83 20,-83 14,-83 8,-77 8,-71 8,-71 8,-20 8,-20 8,-14 14,-8 20,-8"/>
<text xml:space="preserve" text-anchor="middle" x="178" y="-69.5" font-family="sans" font-size="10.00">6&#45;打破</text>
</g>
<g id="clust7" class="cluster">
<title>cluster_6</title>
<path fill="#ffedd5" stroke="#ffedd5" d="M20,-2446C20,-2446 156,-2446 156,-2446 162,-2446 168,-2452 168,-2458 168,-2458 168,-3049 168,-3049 168,-3055 162,-3061 156,-3061 156,-3061 20,-3061 20,-3061 14,-3061 8,-3055 8,-3049 8,-3049 8,-2458 8,-2458 8,-2452 14,-2446 20,-2446"/>
<text xml:space="preserve" text-anchor="middle" x="88" y="-3047.5" font-family="sans" font-size="10.00">7&#45;架构</text>
</g>
<g id="clust8" class="cluster">
<title>cluster_7</title>
<path fill="#d1fae5" stroke="#d1fae5" d="M20,-3692C20,-3692 66,-3692 66,-3692 72,-3692 78,-3698 78,-3704 78,-3704 78,-4025 78,-4025 78,-4031 72,-4037 66,-4037 66,-4037 20,-4037 20,-4037 14,-4037 8,-4031 8,-4025 8,-4025 8,-3704 8,-3704 8,-3698 14,-3692 20,-3692"/>
<text xml:space="preserve" text-anchor="middle" x="43" y="-4023.5" font-family="sans" font-size="10.00">8&#45;经典</text>
</g>
<!-- n1 -->
<g id="node1" class="node">
<title>n1</title>
<path fill="#f8fafc" stroke="#94a3b8" d="M418,-52C418,-52 388,-52 388,-52 382,-52 376,-46 376,-40 376,-40 376,-28 376,-28 376,-22 382,-16 388,-16 388,-16 418,-16 418,-16 424,-16 430,-22 430,-28 430,-28 430,-40 430,-40 430,-46 424,-52 418,-52"/>
<text xml:space="preserve" text-anchor="middle" x="403" y="-30.7" font-family="Times,serif" font-size="9.00">1</text>
</g>
<!-- n2 -->
<g id="node2" class="node">
<title>n2</title>
<path fill="#f8fafc" stroke="#94a3b8" d="M418,-106C418,-106 388,-106 388,-106 382,-106 376,-100 376,-94 376,-94 376,-82 376,-82 376,-76 382,-70 388,-70 388,-70 418,-70 418,-70 424,-70 430,-76 430,-82 430,-82 430,-94 430,-94 430,-100 424,-106 418,-106"/>
<text xml:space="preserve" text-anchor="middle" x="403" y="-84.7" font-family="Times,serif" font-size="9.00">2</text>
</g>
<!-- n3 -->
<g id="node3" class="node">
<title>n3</title>
<path fill="#f8fafc" stroke="#94a3b8" d="M418,-160C418,-160 388,-160 388,-160 382,-160 376,-154 376,-148 376,-148 376,-136 376,-136 376,-130 382,-124 388,-124 388,-124 418,-124 418,-124 424,-124 430,-130 430,-136 430,-136 430,-148 430,-148 430,-154 424,-160 418,-160"/>
<text xml:space="preserve" text-anchor="middle" x="403" y="-138.7" font-family="Times,serif" font-size="9.00">3</text>
</g>
<!-- n4 -->
<g id="node4" class="node">
<title>n4</title>
<path fill="#f8fafc" stroke="#94a3b8" d="M418,-214C418,-214 388,-214 388,-214 382,-214 376,-208 376,-202 376,-202 376,-190 376,-190 376,-184 382,-178 388,-178 388,-178 418,-178 418,-178 424,-178 430,-184 430,-190 430,-190 430,-202 430,-202 430,-208 424,-214 418,-214"/>
<text xml:space="preserve" text-anchor="middle" x="403" y="-192.7" font-family="Times,serif" font-size="9.00">4</text>
</g>
<!-- n5 -->
<g id="node5" class="node">
<title>n5</title>
<path fill="#f8fafc" stroke="#94a3b8" d="M58,-181C58,-181 28,-181 28,-181 22,-181 16,-175 16,-169 16,-169 16,-157 16,-157 16,-151 22,-145 28,-145 28,-145 58,-145 58,-145 64,-145 70,-151 70,-157 70,-157 70,-169 70,-169 70,-175 64,-181 58,-181"/>
<text xml:space="preserve" text-anchor="middle" x="43" y="-159.7" font-family="Times,serif" font-size="9.00">5</text>
</g>
<!-- n6 -->
<g id="node6" class="node">
<title>n6</title>
<path fill="#f8fafc" stroke="#94a3b8" d="M148,-181C148,-181 118,-181 118,-181 112,-181 106,-175 106,-169 106,-169 106,-157 106,-157 106,-151 112,-145 118,-145 118,-145 148,-145 148,-145 154,-145 160,-151 160,-157 160,-157 160,-169 160,-169 160,-175 154,-181 148,-181"/>
<text xml:space="preserve" text-anchor="middle" x="133" y="-159.7" font-family="Times,serif" font-size="9.00">6</text>
</g>
<!-- n5&#45;&gt;n6 -->
<g id="edge1" class="edge">
<title>n5&#45;&gt;n6</title>
<path fill="none" stroke="#2563eb" stroke-width="0.8" d="M70.4,-156.75C79.54,-156.2 89.89,-156.1 99.46,-156.46"/>
<polygon fill="#2563eb" stroke="#2563eb" stroke-width="0.8" points="99.33,-158.2 104.41,-156.7 99.5,-154.71 99.33,-158.2"/>
</g>
<!-- n7 -->
<g id="node7" class="node">
<title>n7</title>
<path fill="#f8fafc" stroke="#94a3b8" d="M238,-135C238,-135 208,-135 208,-135 202,-135 196,-129 196,-123 196,-123 196,-111 196,-111 196,-105 202,-99 208,-99 208,-99 238,-99 238,-99 244,-99 250,-105 250,-111 250,-111 250,-123 250,-123 250,-129 244,-135 238,-135"/>
<text xml:space="preserve" text-anchor="middle" x="223" y="-113.7" font-family="Times,serif" font-size="9.00">7</text>
</g>
<!-- n5&#45;&gt;n7 -->
<g id="edge2" class="edge">
<title>n5&#45;&gt;n7</title>
<path fill="none" stroke="#2563eb" stroke-width="0.8" d="M70.5,-147.69C79.04,-143.32 88.71,-138.95 98,-136 128.36,-126.35 164.51,-121.52 189.92,-119.16"/>
<polygon fill="#2563eb" stroke="#2563eb" stroke-width="0.8" points="189.78,-120.93 194.61,-118.74 189.47,-117.44 189.78,-120.93"/>
</g>
<!-- n8 -->
<g id="node8" class="node">
<title>n8</title>
<path fill="#f8fafc" stroke="#94a3b8" d="M238,-189C238,-189 208,-189 208,-189 202,-189 196,-183 196,-177 196,-177 196,-165 196,-165 196,-159 202,-153 208,-153 208,-153 238,-153 238,-153 244,-153 250,-159 250,-165 250,-165 250,-177 250,-177 250,-183 244,-189 238,-189"/>
<text xml:space="preserve" text-anchor="middle" x="223" y="-167.7" font-family="Times,serif" font-size="9.00">8</text>
</g>
<!-- n5&#45;&gt;n8 -->
<g id="edge3" class="edge">
<title>n5&#45;&gt;n8</title>
<path fill="none" stroke="#2563eb" stroke-width="0.8" d="M70.26,-179.18C78.79,-183.58 88.51,-187.76 98,-190 128.28,-197.15 137.33,-195.24 168,-190 175.19,-188.77 182.7,-186.68 189.76,-184.33"/>
<polygon fill="#2563eb" stroke="#2563eb" stroke-width="0.8" points="190.27,-186.01 194.41,-182.71 189.12,-182.7 190.27,-186.01"/>
</g>
<!-- n9 -->
<g id="node9" class="node">
<title>n9</title>
<path fill="#f8fafc" stroke="#94a3b8" d="M238,-243C238,-243 208,-243 208,-243 202,-243 196,-237 196,-231 196,-231 196,-219 196,-219 196,-213 202,-207 208,-207 208,-207 238,-207 238,-207 244,-207 250,-213 250,-219 250,-219 250,-231 250,-231 250,-237 244,-243 238,-243"/>
<text xml:space="preserve" text-anchor="middle" x="223" y="-221.7" font-family="Times,serif" font-size="9.00">9</text>
</g>
<!-- n5&#45;&gt;n9 -->
<g id="edge4" class="edge">
<title>n5&#45;&gt;n9</title>
<path fill="none" stroke="#2563eb" stroke-width="0.8" d="M69.4,-181.48C78.12,-187.14 88.17,-192.94 98,-197 127.83,-209.33 164.06,-216.71 189.63,-220.77"/>
<polygon fill="#2563eb" stroke="#2563eb" stroke-width="0.8" points="189.16,-222.47 194.37,-221.5 189.69,-219.01 189.16,-222.47"/>
</g>
<!-- n6&#45;&gt;n5 -->
<g id="edge5" class="edge">
<title>n6&#45;&gt;n5</title>
<path fill="none" stroke="#2563eb" stroke-width="0.8" d="M105.62,-169.24C96.48,-169.8 86.13,-169.9 76.56,-169.54"/>
<polygon fill="#2563eb" stroke="#2563eb" stroke-width="0.8" points="76.69,-167.8 71.61,-169.3 76.52,-171.29 76.69,-167.8"/>
</g>
<!-- n6&#45;&gt;n7 -->
<g id="edge6" class="edge">
<title>n6&#45;&gt;n7</title>
<path fill="none" stroke="#2563eb" stroke-width="0.8" d="M160.4,-149.2C169.8,-144.29 180.48,-138.7 190.28,-133.58"/>
<polygon fill="#2563eb" stroke="#2563eb" stroke-width="0.8" points="190.92,-135.22 194.54,-131.35 189.3,-132.12 190.92,-135.22"/>
</g>
<!-- n6&#45;&gt;n8 -->
<g id="edge7" class="edge">
<title>n6&#45;&gt;n8</title>
<path fill="none" stroke="#2563eb" stroke-width="0.8" d="M160.4,-165.4C169.54,-166.23 179.89,-167.17 189.46,-168.04"/>
<polygon fill="#2563eb" stroke="#2563eb" stroke-width="0.8" points="189.27,-169.78 194.41,-168.49 189.59,-166.3 189.27,-169.78"/>
</g>
<!-- n6&#45;&gt;n9 -->
<g id="edge8" class="edge">
<title>n6&#45;&gt;n9</title>
<path fill="none" stroke="#2563eb" stroke-width="0.8" d="M159.93,-181.27C169.69,-188.14 180.88,-196.03 191.05,-203.2"/>
<polygon fill="#2563eb" stroke="#2563eb" stroke-width="0.8" points="189.87,-204.5 194.96,-205.95 191.88,-201.64 189.87,-204.5"/>
</g>
<!-- n10 -->
<g id="node10" class="node">
<title>n10</title>
<path fill="#f8fafc" stroke="#94a3b8" d="M148,-326C148,-326 118,-326 118,-326 112,-326 106,-320 106,-314 106,-314 106,-302 106,-302 106,-296 112,-290 118,-290 118,-290 148,-290 148,-290 154,-290 160,-296 160,-302 160,-302 160,-314 160,-314 160,-320 154,-326 148,-326"/>
<text xml:space="preserve" text-anchor="middle" x="133" y="-304.7" font-family="Times,serif" font-size="9.00">10</text>
</g>
<!-- n11 -->
<g id="node11" class="node">
<title>n11</title>
<path fill="#f8fafc" stroke="#94a3b8" d="M58,-326C58,-326 28,-326 28,-326 22,-326 16,-320 16,-314 16,-314 16,-302 16,-302 16,-296 22,-290 28,-290 28,-290 58,-290 58,-290 64,-290 70,-296 70,-302 70,-302 70,-314 70,-314 70,-320 64,-326 58,-326"/>
<text xml:space="preserve" text-anchor="middle" x="43" y="-304.7" font-family="Times,serif" font-size="9.00">11</text>
</g>
<!-- n11&#45;&gt;n10 -->
<g id="edge9" class="edge">
<title>n11&#45;&gt;n10</title>
<path fill="none" stroke="#2563eb" stroke-width="0.8" d="M70.4,-308C79.54,-308 89.89,-308 99.46,-308"/>
<polygon fill="#2563eb" stroke="#2563eb" stroke-width="0.8" points="99.4,-309.75 104.4,-308 99.4,-306.25 99.4,-309.75"/>
</g>
<!-- n12 -->
<g id="node12" class="node">
<title>n12</title>
<path fill="#f8fafc" stroke="#94a3b8" d="M58,-380C58,-380 28,-380 28,-380 22,-380 16,-374 16,-368 16,-368 16,-356 16,-356 16,-350 22,-344 28,-344 28,-344 58,-344 58,-344 64,-344 70,-350 70,-356 70,-356 70,-368 70,-368 70,-374 64,-380 58,-380"/>
<text xml:space="preserve" text-anchor="middle" x="43" y="-358.7" font-family="Times,serif" font-size="9.00">12</text>
</g>
<!-- n13 -->
<g id="node13" class="node">
<title>n13</title>
<path fill="#f8fafc" stroke="#94a3b8" d="M58,-434C58,-434 28,-434 28,-434 22,-434 16,-428 16,-422 16,-422 16,-410 16,-410 16,-404 22,-398 28,-398 28,-398 58,-398 58,-398 64,-398 70,-404 70,-410 70,-410 70,-422 70,-422 70,-428 64,-434 58,-434"/>
<text xml:space="preserve" text-anchor="middle" x="43" y="-412.7" font-family="Times,serif" font-size="9.00">13</text>
</g>
<!-- n14 -->
<g id="node14" class="node">
<title>n14</title>
<path fill="#f8fafc" stroke="#94a3b8" d="M58,-488C58,-488 28,-488 28,-488 22,-488 16,-482 16,-476 16,-476 16,-464 16,-464 16,-458 22,-452 28,-452 28,-452 58,-452 58,-452 64,-452 70,-458 70,-464 70,-464 70,-476 70,-476 70,-482 64,-488 58,-488"/>
<text xml:space="preserve" text-anchor="middle" x="43" y="-466.7" font-family="Times,serif" font-size="9.00">14</text>
</g>
<!-- n15 -->
<g id="node15" class="node">
<title>n15</title>
<path fill="#f8fafc" stroke="#94a3b8" d="M58,-542C58,-542 28,-542 28,-542 22,-542 16,-536 16,-530 16,-530 16,-518 16,-518 16,-512 22,-506 28,-506 28,-506 58,-506 58,-506 64,-506 70,-512 70,-518 70,-518 70,-530 70,-530 70,-536 64,-542 58,-542"/>
<text xml:space="preserve" text-anchor="middle" x="43" y="-520.7" font-family="Times,serif" font-size="9.00">15</text>
</g>
<!-- n16 -->
<g id="node16" class="node">
<title>n16</title>
<path fill="#f8fafc" stroke="#94a3b8" d="M58,-596C58,-596 28,-596 28,-596 22,-596 16,-590 16,-584 16,-584 16,-572 16,-572 16,-566 22,-560 28,-560 28,-560 58,-560 58,-560 64,-560 70,-566 70,-572 70,-572 70,-584 70,-584 70,-590 64,-596 58,-596"/>
<text xml:space="preserve" text-anchor="middle" x="43" y="-574.7" font-family="Times,serif" font-size="9.00">16</text>
</g>
<!-- n17 -->
<g id="node17" class="node">
<title>n17</title>
<path fill="#f8fafc" stroke="#94a3b8" d="M58,-650C58,-650 28,-650 28,-650 22,-650 16,-644 16,-638 16,-638 16,-626 16,-626 16,-620 22,-614 28,-614 28,-614 58,-614 58,-614 64,-614 70,-620 70,-626 70,-626 70,-638 70,-638 70,-644 64,-650 58,-650"/>
<text xml:space="preserve" text-anchor="middle" x="43" y="-628.7" font-family="Times,serif" font-size="9.00">17</text>
</g>
<!-- n18 -->
<g id="node18" class="node">
<title>n18</title>
<path fill="#f8fafc" stroke="#94a3b8" d="M58,-704C58,-704 28,-704 28,-704 22,-704 16,-698 16,-692 16,-692 16,-680 16,-680 16,-674 22,-668 28,-668 28,-668 58,-668 58,-668 64,-668 70,-674 70,-680 70,-680 70,-692 70,-692 70,-698 64,-704 58,-704"/>
<text xml:space="preserve" text-anchor="middle" x="43" y="-682.7" font-family="Times,serif" font-size="9.00">18</text>
</g>
<!-- n19 -->
<g id="node19" class="node">
<title>n19</title>
<path fill="#f8fafc" stroke="#94a3b8" d="M58,-758C58,-758 28,-758 28,-758 22,-758 16,-752 16,-746 16,-746 16,-734 16,-734 16,-728 22,-722 28,-722 28,-722 58,-722 58,-722 64,-722 70,-728 70,-734 70,-734 70,-746 70,-746 70,-752 64,-758 58,-758"/>
<text xml:space="preserve" text-anchor="middle" x="43" y="-736.7" font-family="Times,serif" font-size="9.00">19</text>
</g>
<!-- n20 -->
<g id="node20" class="node">
<title>n20</title>
<path fill="#f8fafc" stroke="#94a3b8" d="M58,-812C58,-812 28,-812 28,-812 22,-812 16,-806 16,-800 16,-800 16,-788 16,-788 16,-782 22,-776 28,-776 28,-776 58,-776 58,-776 64,-776 70,-782 70,-788 70,-788 70,-800 70,-800 70,-806 64,-812 58,-812"/>
<text xml:space="preserve" text-anchor="middle" x="43" y="-790.7" font-family="Times,serif" font-size="9.00">20</text>
</g>
<!-- n21 -->
<g id="node21" class="node">
<title>n21</title>
<path fill="#f8fafc" stroke="#94a3b8" d="M58,-866C58,-866 28,-866 28,-866 22,-866 16,-860 16,-854 16,-854 16,-842 16,-842 16,-836 22,-830 28,-830 28,-830 58,-830 58,-830 64,-830 70,-836 70,-842 70,-842 70,-854 70,-854 70,-860 64,-866 58,-866"/>
<text xml:space="preserve" text-anchor="middle" x="43" y="-844.7" font-family="Times,serif" font-size="9.00">21</text>
</g>
<!-- n22 -->
<g id="node22" class="node">
<title>n22</title>
<path fill="#f8fafc" stroke="#94a3b8" d="M148,-949C148,-949 118,-949 118,-949 112,-949 106,-943 106,-937 106,-937 106,-925 106,-925 106,-919 112,-913 118,-913 118,-913 148,-913 148,-913 154,-913 160,-919 160,-925 160,-925 160,-937 160,-937 160,-943 154,-949 148,-949"/>
<text xml:space="preserve" text-anchor="middle" x="133" y="-927.7" font-family="Times,serif" font-size="9.00">22</text>
</g>
<!-- n23 -->
<g id="node23" class="node">
<title>n23</title>
<path fill="#f8fafc" stroke="#94a3b8" d="M238,-1003C238,-1003 208,-1003 208,-1003 202,-1003 196,-997 196,-991 196,-991 196,-979 196,-979 196,-973 202,-967 208,-967 208,-967 238,-967 238,-967 244,-967 250,-973 250,-979 250,-979 250,-991 250,-991 250,-997 244,-1003 238,-1003"/>
<text xml:space="preserve" text-anchor="middle" x="223" y="-981.7" font-family="Times,serif" font-size="9.00">23</text>
</g>
<!-- n24 -->
<g id="node24" class="node">
<title>n24</title>
<path fill="#f8fafc" stroke="#94a3b8" d="M148,-1003C148,-1003 118,-1003 118,-1003 112,-1003 106,-997 106,-991 106,-991 106,-979 106,-979 106,-973 112,-967 118,-967 118,-967 148,-967 148,-967 154,-967 160,-973 160,-979 160,-979 160,-991 160,-991 160,-997 154,-1003 148,-1003"/>
<text xml:space="preserve" text-anchor="middle" x="133" y="-981.7" font-family="Times,serif" font-size="9.00">24</text>
</g>
<!-- n24&#45;&gt;n23 -->
<g id="edge10" class="edge">
<title>n24&#45;&gt;n23</title>
<path fill="none" stroke="#2563eb" stroke-width="0.8" d="M160.4,-985C169.54,-985 179.89,-985 189.46,-985"/>
<polygon fill="#2563eb" stroke="#2563eb" stroke-width="0.8" points="189.4,-986.75 194.4,-985 189.4,-983.25 189.4,-986.75"/>
</g>
<!-- n25 -->
<g id="node25" class="node">
<title>n25</title>
<path fill="#f8fafc" stroke="#94a3b8" d="M148,-1057C148,-1057 118,-1057 118,-1057 112,-1057 106,-1051 106,-1045 106,-1045 106,-1033 106,-1033 106,-1027 112,-1021 118,-1021 118,-1021 148,-1021 148,-1021 154,-1021 160,-1027 160,-1033 160,-1033 160,-1045 160,-1045 160,-1051 154,-1057 148,-1057"/>
<text xml:space="preserve" text-anchor="middle" x="133" y="-1035.7" font-family="Times,serif" font-size="9.00">25</text>
</g>
<!-- n26 -->
<g id="node26" class="node">
<title>n26</title>
<path fill="#f8fafc" stroke="#94a3b8" d="M148,-1111C148,-1111 118,-1111 118,-1111 112,-1111 106,-1105 106,-1099 106,-1099 106,-1087 106,-1087 106,-1081 112,-1075 118,-1075 118,-1075 148,-1075 148,-1075 154,-1075 160,-1081 160,-1087 160,-1087 160,-1099 160,-1099 160,-1105 154,-1111 148,-1111"/>
<text xml:space="preserve" text-anchor="middle" x="133" y="-1089.7" font-family="Times,serif" font-size="9.00">26</text>
</g>
<!-- n27 -->
<g id="node27" class="node">
<title>n27</title>
<path fill="#f8fafc" stroke="#94a3b8" d="M148,-1165C148,-1165 118,-1165 118,-1165 112,-1165 106,-1159 106,-1153 106,-1153 106,-1141 106,-1141 106,-1135 112,-1129 118,-1129 118,-1129 148,-1129 148,-1129 154,-1129 160,-1135 160,-1141 160,-1141 160,-1153 160,-1153 160,-1159 154,-1165 148,-1165"/>
<text xml:space="preserve" text-anchor="middle" x="133" y="-1143.7" font-family="Times,serif" font-size="9.00">27</text>
</g>
<!-- n28 -->
<g id="node28" class="node">
<title>n28</title>
<path fill="#f8fafc" stroke="#94a3b8" d="M148,-1219C148,-1219 118,-1219 118,-1219 112,-1219 106,-1213 106,-1207 106,-1207 106,-1195 106,-1195 106,-1189 112,-1183 118,-1183 118,-1183 148,-1183 148,-1183 154,-1183 160,-1189 160,-1195 160,-1195 160,-1207 160,-1207 160,-1213 154,-1219 148,-1219"/>
<text xml:space="preserve" text-anchor="middle" x="133" y="-1197.7" font-family="Times,serif" font-size="9.00">28</text>
</g>
<!-- n29 -->
<g id="node29" class="node">
<title>n29</title>
<path fill="#f8fafc" stroke="#94a3b8" d="M148,-1273C148,-1273 118,-1273 118,-1273 112,-1273 106,-1267 106,-1261 106,-1261 106,-1249 106,-1249 106,-1243 112,-1237 118,-1237 118,-1237 148,-1237 148,-1237 154,-1237 160,-1243 160,-1249 160,-1249 160,-1261 160,-1261 160,-1267 154,-1273 148,-1273"/>
<text xml:space="preserve" text-anchor="middle" x="133" y="-1251.7" font-family="Times,serif" font-size="9.00">29</text>
</g>
<!-- n30 -->
<g id="node30" class="node">
<title>n30</title>
<path fill="#f8fafc" stroke="#94a3b8" d="M148,-1327C148,-1327 118,-1327 118,-1327 112,-1327 106,-1321 106,-1315 106,-1315 106,-1303 106,-1303 106,-1297 112,-1291 118,-1291 118,-1291 148,-1291 148,-1291 154,-1291 160,-1297 160,-1303 160,-1303 160,-1315 160,-1315 160,-1321 154,-1327 148,-1327"/>
<text xml:space="preserve" text-anchor="middle" x="133" y="-1305.7" font-family="Times,serif" font-size="9.00">30</text>
</g>
<!-- n31 -->
<g id="node31" class="node">
<title>n31</title>
<path fill="#f8fafc" stroke="#94a3b8" d="M148,-1381C148,-1381 118,-1381 118,-1381 112,-1381 106,-1375 106,-1369 106,-1369 106,-1357 106,-1357 106,-1351 112,-1345 118,-1345 118,-1345 148,-1345 148,-1345 154,-1345 160,-1351 160,-1357 160,-1357 160,-1369 160,-1369 160,-1375 154,-1381 148,-1381"/>
<text xml:space="preserve" text-anchor="middle" x="133" y="-1359.7" font-family="Times,serif" font-size="9.00">31</text>
</g>
<!-- n32 -->
<g id="node32" class="node">
<title>n32</title>
<path fill="#f8fafc" stroke="#94a3b8" d="M148,-1435C148,-1435 118,-1435 118,-1435 112,-1435 106,-1429 106,-1423 106,-1423 106,-1411 106,-1411 106,-1405 112,-1399 118,-1399 118,-1399 148,-1399 148,-1399 154,-1399 160,-1405 160,-1411 160,-1411 160,-1423 160,-1423 160,-1429 154,-1435 148,-1435"/>
<text xml:space="preserve" text-anchor="middle" x="133" y="-1413.7" font-family="Times,serif" font-size="9.00">32</text>
</g>
<!-- n33 -->
<g id="node33" class="node">
<title>n33</title>
<path fill="#f8fafc" stroke="#94a3b8" d="M148,-1489C148,-1489 118,-1489 118,-1489 112,-1489 106,-1483 106,-1477 106,-1477 106,-1465 106,-1465 106,-1459 112,-1453 118,-1453 118,-1453 148,-1453 148,-1453 154,-1453 160,-1459 160,-1465 160,-1465 160,-1477 160,-1477 160,-1483 154,-1489 148,-1489"/>
<text xml:space="preserve" text-anchor="middle" x="133" y="-1467.7" font-family="Times,serif" font-size="9.00">33</text>
</g>
<!-- n34 -->
<g id="node34" class="node">
<title>n34</title>
<path fill="#f8fafc" stroke="#94a3b8" d="M148,-1543C148,-1543 118,-1543 118,-1543 112,-1543 106,-1537 106,-1531 106,-1531 106,-1519 106,-1519 106,-1513 112,-1507 118,-1507 118,-1507 148,-1507 148,-1507 154,-1507 160,-1513 160,-1519 160,-1519 160,-1531 160,-1531 160,-1537 154,-1543 148,-1543"/>
<text xml:space="preserve" text-anchor="middle" x="133" y="-1521.7" font-family="Times,serif" font-size="9.00">34</text>
</g>
<!-- n35 -->
<g id="node35" class="node">
<title>n35</title>
<path fill="#f8fafc" stroke="#94a3b8" d="M148,-1597C148,-1597 118,-1597 118,-1597 112,-1597 106,-1591 106,-1585 106,-1585 106,-1573 106,-1573 106,-1567 112,-1561 118,-1561 118,-1561 148,-1561 148,-1561 154,-1561 160,-1567 160,-1573 160,-1573 160,-1585 160,-1585 160,-1591 154,-1597 148,-1597"/>
<text xml:space="preserve" text-anchor="middle" x="133" y="-1575.7" font-family="Times,serif" font-size="9.00">35</text>
</g>
<!-- n36 -->
<g id="node36" class="node">
<title>n36</title>
<path fill="#f8fafc" stroke="#94a3b8" d="M148,-1651C148,-1651 118,-1651 118,-1651 112,-1651 106,-1645 106,-1639 106,-1639 106,-1627 106,-1627 106,-1621 112,-1615 118,-1615 118,-1615 148,-1615 148,-1615 154,-1615 160,-1621 160,-1627 160,-1627 160,-1639 160,-1639 160,-1645 154,-1651 148,-1651"/>
<text xml:space="preserve" text-anchor="middle" x="133" y="-1629.7" font-family="Times,serif" font-size="9.00">36</text>
</g>
<!-- n37 -->
<g id="node37" class="node">
<title>n37</title>
<path fill="#f8fafc" stroke="#94a3b8" d="M148,-1705C148,-1705 118,-1705 118,-1705 112,-1705 106,-1699 106,-1693 106,-1693 106,-1681 106,-1681 106,-1675 112,-1669 118,-1669 118,-1669 148,-1669 148,-1669 154,-1669 160,-1675 160,-1681 160,-1681 160,-1693 160,-1693 160,-1699 154,-1705 148,-1705"/>
<text xml:space="preserve" text-anchor="middle" x="133" y="-1683.7" font-family="Times,serif" font-size="9.00">37</text>
</g>
<!-- n38 -->
<g id="node38" class="node">
<title>n38</title>
<path fill="#f8fafc" stroke="#94a3b8" d="M148,-1759C148,-1759 118,-1759 118,-1759 112,-1759 106,-1753 106,-1747 106,-1747 106,-1735 106,-1735 106,-1729 112,-1723 118,-1723 118,-1723 148,-1723 148,-1723 154,-1723 160,-1729 160,-1735 160,-1735 160,-1747 160,-1747 160,-1753 154,-1759 148,-1759"/>
<text xml:space="preserve" text-anchor="middle" x="133" y="-1737.7" font-family="Times,serif" font-size="9.00">38</text>
</g>
<!-- n39 -->
<g id="node39" class="node">
<title>n39</title>
<path fill="#f8fafc" stroke="#94a3b8" d="M148,-1813C148,-1813 118,-1813 118,-1813 112,-1813 106,-1807 106,-1801 106,-1801 106,-1789 106,-1789 106,-1783 112,-1777 118,-1777 118,-1777 148,-1777 148,-1777 154,-1777 160,-1783 160,-1789 160,-1789 160,-1801 160,-1801 160,-1807 154,-1813 148,-1813"/>
<text xml:space="preserve" text-anchor="middle" x="133" y="-1791.7" font-family="Times,serif" font-size="9.00">39</text>
</g>
<!-- n40 -->
<g id="node40" class="node">
<title>n40</title>
<path fill="#f8fafc" stroke="#94a3b8" d="M148,-1867C148,-1867 118,-1867 118,-1867 112,-1867 106,-1861 106,-1855 106,-1855 106,-1843 106,-1843 106,-1837 112,-1831 118,-1831 118,-1831 148,-1831 148,-1831 154,-1831 160,-1837 160,-1843 160,-1843 160,-1855 160,-1855 160,-1861 154,-1867 148,-1867"/>
<text xml:space="preserve" text-anchor="middle" x="133" y="-1845.7" font-family="Times,serif" font-size="9.00">40</text>
</g>
<!-- n41 -->
<g id="node41" class="node">
<title>n41</title>
<path fill="#f8fafc" stroke="#94a3b8" d="M148,-1921C148,-1921 118,-1921 118,-1921 112,-1921 106,-1915 106,-1909 106,-1909 106,-1897 106,-1897 106,-1891 112,-1885 118,-1885 118,-1885 148,-1885 148,-1885 154,-1885 160,-1891 160,-1897 160,-1897 160,-1909 160,-1909 160,-1915 154,-1921 148,-1921"/>
<text xml:space="preserve" text-anchor="middle" x="133" y="-1899.7" font-family="Times,serif" font-size="9.00">41</text>
</g>
<!-- n42 -->
<g id="node42" class="node">
<title>n42</title>
<path fill="#f8fafc" stroke="#94a3b8" d="M148,-1975C148,-1975 118,-1975 118,-1975 112,-1975 106,-1969 106,-1963 106,-1963 106,-1951 106,-1951 106,-1945 112,-1939 118,-1939 118,-1939 148,-1939 148,-1939 154,-1939 160,-1945 160,-1951 160,-1951 160,-1963 160,-1963 160,-1969 154,-1975 148,-1975"/>
<text xml:space="preserve" text-anchor="middle" x="133" y="-1953.7" font-family="Times,serif" font-size="9.00">42</text>
</g>
<!-- n43 -->
<g id="node43" class="node">
<title>n43</title>
<path fill="#f8fafc" stroke="#94a3b8" d="M148,-2029C148,-2029 118,-2029 118,-2029 112,-2029 106,-2023 106,-2017 106,-2017 106,-2005 106,-2005 106,-1999 112,-1993 118,-1993 118,-1993 148,-1993 148,-1993 154,-1993 160,-1999 160,-2005 160,-2005 160,-2017 160,-2017 160,-2023 154,-2029 148,-2029"/>
<text xml:space="preserve" text-anchor="middle" x="133" y="-2007.7" font-family="Times,serif" font-size="9.00">43</text>
</g>
<!-- n44 -->
<g id="node44" class="node">
<title>n44</title>
<path fill="#f8fafc" stroke="#94a3b8" d="M148,-2083C148,-2083 118,-2083 118,-2083 112,-2083 106,-2077 106,-2071 106,-2071 106,-2059 106,-2059 106,-2053 112,-2047 118,-2047 118,-2047 148,-2047 148,-2047 154,-2047 160,-2053 160,-2059 160,-2059 160,-2071 160,-2071 160,-2077 154,-2083 148,-2083"/>
<text xml:space="preserve" text-anchor="middle" x="133" y="-2061.7" font-family="Times,serif" font-size="9.00">44</text>
</g>
<!-- n45 -->
<g id="node45" class="node">
<title>n45</title>
<path fill="#f8fafc" stroke="#94a3b8" d="M148,-2137C148,-2137 118,-2137 118,-2137 112,-2137 106,-2131 106,-2125 106,-2125 106,-2113 106,-2113 106,-2107 112,-2101 118,-2101 118,-2101 148,-2101 148,-2101 154,-2101 160,-2107 160,-2113 160,-2113 160,-2125 160,-2125 160,-2131 154,-2137 148,-2137"/>
<text xml:space="preserve" text-anchor="middle" x="133" y="-2115.7" font-family="Times,serif" font-size="9.00">45</text>
</g>
<!-- n46 -->
<g id="node46" class="node">
<title>n46</title>
<path fill="#f8fafc" stroke="#94a3b8" d="M148,-2191C148,-2191 118,-2191 118,-2191 112,-2191 106,-2185 106,-2179 106,-2179 106,-2167 106,-2167 106,-2161 112,-2155 118,-2155 118,-2155 148,-2155 148,-2155 154,-2155 160,-2161 160,-2167 160,-2167 160,-2179 160,-2179 160,-2185 154,-2191 148,-2191"/>
<text xml:space="preserve" text-anchor="middle" x="133" y="-2169.7" font-family="Times,serif" font-size="9.00">46</text>
</g>
<!-- n47 -->
<g id="node47" class="node">
<title>n47</title>
<path fill="#f8fafc" stroke="#94a3b8" d="M148,-2245C148,-2245 118,-2245 118,-2245 112,-2245 106,-2239 106,-2233 106,-2233 106,-2221 106,-2221 106,-2215 112,-2209 118,-2209 118,-2209 148,-2209 148,-2209 154,-2209 160,-2215 160,-2221 160,-2221 160,-2233 160,-2233 160,-2239 154,-2245 148,-2245"/>
<text xml:space="preserve" text-anchor="middle" x="133" y="-2223.7" font-family="Times,serif" font-size="9.00">47</text>
</g>
<!-- n48 -->
<g id="node48" class="node">
<title>n48</title>
<path fill="#f8fafc" stroke="#94a3b8" d="M148,-2299C148,-2299 118,-2299 118,-2299 112,-2299 106,-2293 106,-2287 106,-2287 106,-2275 106,-2275 106,-2269 112,-2263 118,-2263 118,-2263 148,-2263 148,-2263 154,-2263 160,-2269 160,-2275 160,-2275 160,-2287 160,-2287 160,-2293 154,-2299 148,-2299"/>
<text xml:space="preserve" text-anchor="middle" x="133" y="-2277.7" font-family="Times,serif" font-size="9.00">48</text>
</g>
<!-- n49 -->
<g id="node49" class="node">
<title>n49</title>
<path fill="#f8fafc" stroke="#94a3b8" d="M148,-2353C148,-2353 118,-2353 118,-2353 112,-2353 106,-2347 106,-2341 106,-2341 106,-2329 106,-2329 106,-2323 112,-2317 118,-2317 118,-2317 148,-2317 148,-2317 154,-2317 160,-2323 160,-2329 160,-2329 160,-2341 160,-2341 160,-2347 154,-2353 148,-2353"/>
<text xml:space="preserve" text-anchor="middle" x="133" y="-2331.7" font-family="Times,serif" font-size="9.00">49</text>
</g>
<!-- n50 -->
<g id="node50" class="node">
<title>n50</title>
<path fill="#f8fafc" stroke="#94a3b8" d="M148,-2407C148,-2407 118,-2407 118,-2407 112,-2407 106,-2401 106,-2395 106,-2395 106,-2383 106,-2383 106,-2377 112,-2371 118,-2371 118,-2371 148,-2371 148,-2371 154,-2371 160,-2377 160,-2383 160,-2383 160,-2395 160,-2395 160,-2401 154,-2407 148,-2407"/>
<text xml:space="preserve" text-anchor="middle" x="133" y="-2385.7" font-family="Times,serif" font-size="9.00">50</text>
</g>
<!-- n51 -->
<g id="node51" class="node">
<title>n51</title>
<path fill="#f8fafc" stroke="#94a3b8" d="M238,-3329C238,-3329 208,-3329 208,-3329 202,-3329 196,-3323 196,-3317 196,-3317 196,-3305 196,-3305 196,-3299 202,-3293 208,-3293 208,-3293 238,-3293 238,-3293 244,-3293 250,-3299 250,-3305 250,-3305 250,-3317 250,-3317 250,-3323 244,-3329 238,-3329"/>
<text xml:space="preserve" text-anchor="middle" x="223" y="-3307.7" font-family="Times,serif" font-size="9.00">51</text>
</g>
<!-- n52 -->
<g id="node52" class="node">
<title>n52</title>
<path fill="#f8fafc" stroke="#94a3b8" d="M58,-3113C58,-3113 28,-3113 28,-3113 22,-3113 16,-3107 16,-3101 16,-3101 16,-3089 16,-3089 16,-3083 22,-3077 28,-3077 28,-3077 58,-3077 58,-3077 64,-3077 70,-3083 70,-3089 70,-3089 70,-3101 70,-3101 70,-3107 64,-3113 58,-3113"/>
<text xml:space="preserve" text-anchor="middle" x="43" y="-3091.7" font-family="Times,serif" font-size="9.00">52</text>
</g>
<!-- n53 -->
<g id="node53" class="node">
<title>n53</title>
<path fill="#f8fafc" stroke="#94a3b8" d="M58,-3167C58,-3167 28,-3167 28,-3167 22,-3167 16,-3161 16,-3155 16,-3155 16,-3143 16,-3143 16,-3137 22,-3131 28,-3131 28,-3131 58,-3131 58,-3131 64,-3131 70,-3137 70,-3143 70,-3143 70,-3155 70,-3155 70,-3161 64,-3167 58,-3167"/>
<text xml:space="preserve" text-anchor="middle" x="43" y="-3145.7" font-family="Times,serif" font-size="9.00">53</text>
</g>
<!-- n54 -->
<g id="node54" class="node">
<title>n54</title>
<path fill="#f8fafc" stroke="#94a3b8" d="M58,-3221C58,-3221 28,-3221 28,-3221 22,-3221 16,-3215 16,-3209 16,-3209 16,-3197 16,-3197 16,-3191 22,-3185 28,-3185 28,-3185 58,-3185 58,-3185 64,-3185 70,-3191 70,-3197 70,-3197 70,-3209 70,-3209 70,-3215 64,-3221 58,-3221"/>
<text xml:space="preserve" text-anchor="middle" x="43" y="-3199.7" font-family="Times,serif" font-size="9.00">54</text>
</g>
<!-- n55 -->
<g id="node55" class="node">
<title>n55</title>
<path fill="#f8fafc" stroke="#94a3b8" d="M58,-3275C58,-3275 28,-3275 28,-3275 22,-3275 16,-3269 16,-3263 16,-3263 16,-3251 16,-3251 16,-3245 22,-3239 28,-3239 28,-3239 58,-3239 58,-3239 64,-3239 70,-3245 70,-3251 70,-3251 70,-3263 70,-3263 70,-3269 64,-3275 58,-3275"/>
<text xml:space="preserve" text-anchor="middle" x="43" y="-3253.7" font-family="Times,serif" font-size="9.00">55</text>
</g>
<!-- n56 -->
<g id="node56" class="node">
<title>n56</title>
<path fill="#f8fafc" stroke="#94a3b8" d="M148,-3329C148,-3329 118,-3329 118,-3329 112,-3329 106,-3323 106,-3317 106,-3317 106,-3305 106,-3305 106,-3299 112,-3293 118,-3293 118,-3293 148,-3293 148,-3293 154,-3293 160,-3299 160,-3305 160,-3305 160,-3317 160,-3317 160,-3323 154,-3329 148,-3329"/>
<text xml:space="preserve" text-anchor="middle" x="133" y="-3307.7" font-family="Times,serif" font-size="9.00">56</text>
</g>
<!-- n56&#45;&gt;n51 -->
<g id="edge11" class="edge">
<title>n56&#45;&gt;n51</title>
<path fill="none" stroke="#2563eb" stroke-width="0.8" d="M160.4,-3311C169.54,-3311 179.89,-3311 189.46,-3311"/>
<polygon fill="#2563eb" stroke="#2563eb" stroke-width="0.8" points="189.4,-3312.75 194.4,-3311 189.4,-3309.25 189.4,-3312.75"/>
</g>
<!-- n57 -->
<g id="node57" class="node">
<title>n57</title>
<path fill="#f8fafc" stroke="#94a3b8" d="M58,-3329C58,-3329 28,-3329 28,-3329 22,-3329 16,-3323 16,-3317 16,-3317 16,-3305 16,-3305 16,-3299 22,-3293 28,-3293 28,-3293 58,-3293 58,-3293 64,-3293 70,-3299 70,-3305 70,-3305 70,-3317 70,-3317 70,-3323 64,-3329 58,-3329"/>
<text xml:space="preserve" text-anchor="middle" x="43" y="-3307.7" font-family="Times,serif" font-size="9.00">57</text>
</g>
<!-- n57&#45;&gt;n56 -->
<g id="edge12" class="edge">
<title>n57&#45;&gt;n56</title>
<path fill="none" stroke="#2563eb" stroke-width="0.8" d="M70.4,-3311C79.54,-3311 89.89,-3311 99.46,-3311"/>
<polygon fill="#2563eb" stroke="#2563eb" stroke-width="0.8" points="99.4,-3312.75 104.4,-3311 99.4,-3309.25 99.4,-3312.75"/>
</g>
<!-- n58 -->
<g id="node58" class="node">
<title>n58</title>
<path fill="#f8fafc" stroke="#94a3b8" d="M58,-3383C58,-3383 28,-3383 28,-3383 22,-3383 16,-3377 16,-3371 16,-3371 16,-3359 16,-3359 16,-3353 22,-3347 28,-3347 28,-3347 58,-3347 58,-3347 64,-3347 70,-3353 70,-3359 70,-3359 70,-3371 70,-3371 70,-3377 64,-3383 58,-3383"/>
<text xml:space="preserve" text-anchor="middle" x="43" y="-3361.7" font-family="Times,serif" font-size="9.00">58</text>
</g>
<!-- n59 -->
<g id="node59" class="node">
<title>n59</title>
<path fill="#f8fafc" stroke="#94a3b8" d="M58,-3437C58,-3437 28,-3437 28,-3437 22,-3437 16,-3431 16,-3425 16,-3425 16,-3413 16,-3413 16,-3407 22,-3401 28,-3401 28,-3401 58,-3401 58,-3401 64,-3401 70,-3407 70,-3413 70,-3413 70,-3425 70,-3425 70,-3431 64,-3437 58,-3437"/>
<text xml:space="preserve" text-anchor="middle" x="43" y="-3415.7" font-family="Times,serif" font-size="9.00">59</text>
</g>
<!-- n60 -->
<g id="node60" class="node">
<title>n60</title>
<path fill="#f8fafc" stroke="#94a3b8" d="M58,-3491C58,-3491 28,-3491 28,-3491 22,-3491 16,-3485 16,-3479 16,-3479 16,-3467 16,-3467 16,-3461 22,-3455 28,-3455 28,-3455 58,-3455 58,-3455 64,-3455 70,-3461 70,-3467 70,-3467 70,-3479 70,-3479 70,-3485 64,-3491 58,-3491"/>
<text xml:space="preserve" text-anchor="middle" x="43" y="-3469.7" font-family="Times,serif" font-size="9.00">60</text>
</g>
<!-- n61 -->
<g id="node61" class="node">
<title>n61</title>
<path fill="#f8fafc" stroke="#94a3b8" d="M58,-3545C58,-3545 28,-3545 28,-3545 22,-3545 16,-3539 16,-3533 16,-3533 16,-3521 16,-3521 16,-3515 22,-3509 28,-3509 28,-3509 58,-3509 58,-3509 64,-3509 70,-3515 70,-3521 70,-3521 70,-3533 70,-3533 70,-3539 64,-3545 58,-3545"/>
<text xml:space="preserve" text-anchor="middle" x="43" y="-3523.7" font-family="Times,serif" font-size="9.00">61</text>
</g>
<!-- n62 -->
<g id="node62" class="node">
<title>n62</title>
<path fill="#f8fafc" stroke="#94a3b8" d="M58,-3599C58,-3599 28,-3599 28,-3599 22,-3599 16,-3593 16,-3587 16,-3587 16,-3575 16,-3575 16,-3569 22,-3563 28,-3563 28,-3563 58,-3563 58,-3563 64,-3563 70,-3569 70,-3575 70,-3575 70,-3587 70,-3587 70,-3593 64,-3599 58,-3599"/>
<text xml:space="preserve" text-anchor="middle" x="43" y="-3577.7" font-family="Times,serif" font-size="9.00">62</text>
</g>
<!-- n63 -->
<g id="node63" class="node">
<title>n63</title>
<path fill="#f8fafc" stroke="#94a3b8" d="M58,-3653C58,-3653 28,-3653 28,-3653 22,-3653 16,-3647 16,-3641 16,-3641 16,-3629 16,-3629 16,-3623 22,-3617 28,-3617 28,-3617 58,-3617 58,-3617 64,-3617 70,-3623 70,-3629 70,-3629 70,-3641 70,-3641 70,-3647 64,-3653 58,-3653"/>
<text xml:space="preserve" text-anchor="middle" x="43" y="-3631.7" font-family="Times,serif" font-size="9.00">63</text>
</g>
<!-- n64 -->
<g id="node64" class="node">
<title>n64</title>
<path fill="#f8fafc" stroke="#94a3b8" d="M58,-52C58,-52 28,-52 28,-52 22,-52 16,-46 16,-40 16,-40 16,-28 16,-28 16,-22 22,-16 28,-16 28,-16 58,-16 58,-16 64,-16 70,-22 70,-28 70,-28 70,-40 70,-40 70,-46 64,-52 58,-52"/>
<text xml:space="preserve" text-anchor="middle" x="43" y="-30.7" font-family="Times,serif" font-size="9.00">64</text>
</g>
<!-- n65 -->
<g id="node65" class="node">
<title>n65</title>
<path fill="#f8fafc" stroke="#94a3b8" d="M148,-52C148,-52 118,-52 118,-52 112,-52 106,-46 106,-40 106,-40 106,-28 106,-28 106,-22 112,-16 118,-16 118,-16 148,-16 148,-16 154,-16 160,-22 160,-28 160,-28 160,-40 160,-40 160,-46 154,-52 148,-52"/>
<text xml:space="preserve" text-anchor="middle" x="133" y="-30.7" font-family="Times,serif" font-size="9.00">65</text>
</g>
<!-- n64&#45;&gt;n65 -->
<g id="edge13" class="edge">
<title>n64&#45;&gt;n65</title>
<path fill="none" stroke="#2563eb" stroke-width="0.8" d="M70.4,-27.75C79.54,-27.2 89.89,-27.1 99.46,-27.46"/>
<polygon fill="#2563eb" stroke="#2563eb" stroke-width="0.8" points="99.33,-29.2 104.41,-27.7 99.5,-25.71 99.33,-29.2"/>
</g>
<!-- n65&#45;&gt;n64 -->
<g id="edge14" class="edge">
<title>n65&#45;&gt;n64</title>
<path fill="none" stroke="#2563eb" stroke-width="0.8" d="M105.62,-40.24C96.48,-40.8 86.13,-40.9 76.56,-40.54"/>
<polygon fill="#2563eb" stroke="#2563eb" stroke-width="0.8" points="76.69,-38.8 71.61,-40.3 76.52,-42.29 76.69,-38.8"/>
</g>
<!-- n66 -->
<g id="node66" class="node">
<title>n66</title>
<path fill="#f8fafc" stroke="#94a3b8" d="M238,-52C238,-52 208,-52 208,-52 202,-52 196,-46 196,-40 196,-40 196,-28 196,-28 196,-22 202,-16 208,-16 208,-16 238,-16 238,-16 244,-16 250,-22 250,-28 250,-28 250,-40 250,-40 250,-46 244,-52 238,-52"/>
<text xml:space="preserve" text-anchor="middle" x="223" y="-30.7" font-family="Times,serif" font-size="9.00">66</text>
</g>
<!-- n65&#45;&gt;n66 -->
<g id="edge15" class="edge">
<title>n65&#45;&gt;n66</title>
<path fill="none" stroke="#2563eb" stroke-width="0.8" d="M160.4,-34C169.54,-34 179.89,-34 189.46,-34"/>
<polygon fill="#2563eb" stroke="#2563eb" stroke-width="0.8" points="189.4,-35.75 194.4,-34 189.4,-32.25 189.4,-35.75"/>
</g>
<!-- n67 -->
<g id="node67" class="node">
<title>n67</title>
<path fill="#f8fafc" stroke="#94a3b8" d="M328,-52C328,-52 298,-52 298,-52 292,-52 286,-46 286,-40 286,-40 286,-28 286,-28 286,-22 292,-16 298,-16 298,-16 328,-16 328,-16 334,-16 340,-22 340,-28 340,-28 340,-40 340,-40 340,-46 334,-52 328,-52"/>
<text xml:space="preserve" text-anchor="middle" x="313" y="-30.7" font-family="Times,serif" font-size="9.00">67</text>
</g>
<!-- n66&#45;&gt;n67 -->
<g id="edge16" class="edge">
<title>n66&#45;&gt;n67</title>
<path fill="none" stroke="#2563eb" stroke-width="0.8" d="M250.4,-27.75C259.54,-27.2 269.89,-27.1 279.46,-27.46"/>
<polygon fill="#2563eb" stroke="#2563eb" stroke-width="0.8" points="279.33,-29.2 284.41,-27.7 279.5,-25.71 279.33,-29.2"/>
</g>
<!-- n67&#45;&gt;n1 -->
<g id="edge17" class="edge">
<title>n67&#45;&gt;n1</title>
<path fill="none" stroke="#2563eb" stroke-width="0.8" d="M340.4,-34C349.54,-34 359.89,-34 369.46,-34"/>
<polygon fill="#2563eb" stroke="#2563eb" stroke-width="0.8" points="369.4,-35.75 374.4,-34 369.4,-32.25 369.4,-35.75"/>
</g>
<!-- n67&#45;&gt;n66 -->
<g id="edge18" class="edge">
<title>n67&#45;&gt;n66</title>
<path fill="none" stroke="#2563eb" stroke-width="0.8" d="M285.62,-40.24C276.48,-40.8 266.13,-40.9 256.56,-40.54"/>
<polygon fill="#2563eb" stroke="#2563eb" stroke-width="0.8" points="256.69,-38.8 251.61,-40.3 256.52,-42.29 256.69,-38.8"/>
</g>
<!-- n68 -->
<g id="node68" class="node">
<title>n68</title>
<path fill="#f8fafc" stroke="#94a3b8" d="M58,-2490C58,-2490 28,-2490 28,-2490 22,-2490 16,-2484 16,-2478 16,-2478 16,-2466 16,-2466 16,-2460 22,-2454 28,-2454 28,-2454 58,-2454 58,-2454 64,-2454 70,-2460 70,-2466 70,-2466 70,-2478 70,-2478 70,-2484 64,-2490 58,-2490"/>
<text xml:space="preserve" text-anchor="middle" x="43" y="-2468.7" font-family="Times,serif" font-size="9.00">68</text>
</g>
<!-- n69 -->
<g id="node69" class="node">
<title>n69</title>
<path fill="#f8fafc" stroke="#94a3b8" d="M58,-2544C58,-2544 28,-2544 28,-2544 22,-2544 16,-2538 16,-2532 16,-2532 16,-2520 16,-2520 16,-2514 22,-2508 28,-2508 28,-2508 58,-2508 58,-2508 64,-2508 70,-2514 70,-2520 70,-2520 70,-2532 70,-2532 70,-2538 64,-2544 58,-2544"/>
<text xml:space="preserve" text-anchor="middle" x="43" y="-2522.7" font-family="Times,serif" font-size="9.00">69</text>
</g>
<!-- n70 -->
<g id="node70" class="node">
<title>n70</title>
<path fill="#f8fafc" stroke="#94a3b8" d="M58,-2598C58,-2598 28,-2598 28,-2598 22,-2598 16,-2592 16,-2586 16,-2586 16,-2574 16,-2574 16,-2568 22,-2562 28,-2562 28,-2562 58,-2562 58,-2562 64,-2562 70,-2568 70,-2574 70,-2574 70,-2586 70,-2586 70,-2592 64,-2598 58,-2598"/>
<text xml:space="preserve" text-anchor="middle" x="43" y="-2576.7" font-family="Times,serif" font-size="9.00">70</text>
</g>
<!-- n71 -->
<g id="node71" class="node">
<title>n71</title>
<path fill="#f8fafc" stroke="#94a3b8" d="M58,-2652C58,-2652 28,-2652 28,-2652 22,-2652 16,-2646 16,-2640 16,-2640 16,-2628 16,-2628 16,-2622 22,-2616 28,-2616 28,-2616 58,-2616 58,-2616 64,-2616 70,-2622 70,-2628 70,-2628 70,-2640 70,-2640 70,-2646 64,-2652 58,-2652"/>
<text xml:space="preserve" text-anchor="middle" x="43" y="-2630.7" font-family="Times,serif" font-size="9.00">71</text>
</g>
<!-- n71&#45;&gt;n30 -->
<g id="edge19" class="edge">
<title>n71&#45;&gt;n30</title>
<path fill="none" stroke="#2563eb" stroke-width="0.8" d="M70.42,-2617.24C73.46,-2614.21 76.13,-2610.79 78,-2607 109.21,-2543.65 66.79,-1399.35 98,-1336 98.99,-1333.99 100.21,-1332.08 101.59,-1330.28"/>
<polygon fill="#2563eb" stroke="#2563eb" stroke-width="0.8" points="102.79,-1331.57 104.78,-1326.66 100.16,-1329.25 102.79,-1331.57"/>
</g>
<!-- n72 -->
<g id="node72" class="node">
<title>n72</title>
<path fill="#f8fafc" stroke="#94a3b8" d="M58,-2706C58,-2706 28,-2706 28,-2706 22,-2706 16,-2700 16,-2694 16,-2694 16,-2682 16,-2682 16,-2676 22,-2670 28,-2670 28,-2670 58,-2670 58,-2670 64,-2670 70,-2676 70,-2682 70,-2682 70,-2694 70,-2694 70,-2700 64,-2706 58,-2706"/>
<text xml:space="preserve" text-anchor="middle" x="43" y="-2684.7" font-family="Times,serif" font-size="9.00">72</text>
</g>
<!-- n73 -->
<g id="node73" class="node">
<title>n73</title>
<path fill="#f8fafc" stroke="#94a3b8" d="M148,-2787C148,-2787 118,-2787 118,-2787 112,-2787 106,-2781 106,-2775 106,-2775 106,-2763 106,-2763 106,-2757 112,-2751 118,-2751 118,-2751 148,-2751 148,-2751 154,-2751 160,-2757 160,-2763 160,-2763 160,-2775 160,-2775 160,-2781 154,-2787 148,-2787"/>
<text xml:space="preserve" text-anchor="middle" x="133" y="-2765.7" font-family="Times,serif" font-size="9.00">73</text>
</g>
<!-- n74 -->
<g id="node74" class="node">
<title>n74</title>
<path fill="#f8fafc" stroke="#94a3b8" d="M58,-2760C58,-2760 28,-2760 28,-2760 22,-2760 16,-2754 16,-2748 16,-2748 16,-2736 16,-2736 16,-2730 22,-2724 28,-2724 28,-2724 58,-2724 58,-2724 64,-2724 70,-2730 70,-2736 70,-2736 70,-2748 70,-2748 70,-2754 64,-2760 58,-2760"/>
<text xml:space="preserve" text-anchor="middle" x="43" y="-2738.7" font-family="Times,serif" font-size="9.00">74</text>
</g>
<!-- n74&#45;&gt;n73 -->
<g id="edge20" class="edge">
<title>n74&#45;&gt;n73</title>
<path fill="none" stroke="#2563eb" stroke-width="0.8" d="M70.4,-2750.1C79.63,-2752.93 90.09,-2756.14 99.73,-2759.1"/>
<polygon fill="#2563eb" stroke="#2563eb" stroke-width="0.8" points="99.16,-2760.76 104.46,-2760.55 100.19,-2757.41 99.16,-2760.76"/>
</g>
<!-- n75 -->
<g id="node75" class="node">
<title>n75</title>
<path fill="#f8fafc" stroke="#94a3b8" d="M58,-2814C58,-2814 28,-2814 28,-2814 22,-2814 16,-2808 16,-2802 16,-2802 16,-2790 16,-2790 16,-2784 22,-2778 28,-2778 28,-2778 58,-2778 58,-2778 64,-2778 70,-2784 70,-2790 70,-2790 70,-2802 70,-2802 70,-2808 64,-2814 58,-2814"/>
<text xml:space="preserve" text-anchor="middle" x="43" y="-2792.7" font-family="Times,serif" font-size="9.00">75</text>
</g>
<!-- n75&#45;&gt;n73 -->
<g id="edge21" class="edge">
<title>n75&#45;&gt;n73</title>
<path fill="none" stroke="#2563eb" stroke-width="0.8" d="M70.4,-2787.9C79.63,-2785.07 90.09,-2781.86 99.73,-2778.9"/>
<polygon fill="#2563eb" stroke="#2563eb" stroke-width="0.8" points="100.19,-2780.59 104.46,-2777.45 99.16,-2777.24 100.19,-2780.59"/>
</g>
<!-- n76 -->
<g id="node76" class="node">
<title>n76</title>
<path fill="#f8fafc" stroke="#94a3b8" d="M58,-2868C58,-2868 28,-2868 28,-2868 22,-2868 16,-2862 16,-2856 16,-2856 16,-2844 16,-2844 16,-2838 22,-2832 28,-2832 28,-2832 58,-2832 58,-2832 64,-2832 70,-2838 70,-2844 70,-2844 70,-2856 70,-2856 70,-2862 64,-2868 58,-2868"/>
<text xml:space="preserve" text-anchor="middle" x="43" y="-2846.7" font-family="Times,serif" font-size="9.00">76</text>
</g>
<!-- n77 -->
<g id="node77" class="node">
<title>n77</title>
<path fill="#f8fafc" stroke="#94a3b8" d="M58,-2922C58,-2922 28,-2922 28,-2922 22,-2922 16,-2916 16,-2910 16,-2910 16,-2898 16,-2898 16,-2892 22,-2886 28,-2886 28,-2886 58,-2886 58,-2886 64,-2886 70,-2892 70,-2898 70,-2898 70,-2910 70,-2910 70,-2916 64,-2922 58,-2922"/>
<text xml:space="preserve" text-anchor="middle" x="43" y="-2900.7" font-family="Times,serif" font-size="9.00">77</text>
</g>
<!-- n78 -->
<g id="node78" class="node">
<title>n78</title>
<path fill="#f8fafc" stroke="#94a3b8" d="M58,-2976C58,-2976 28,-2976 28,-2976 22,-2976 16,-2970 16,-2964 16,-2964 16,-2952 16,-2952 16,-2946 22,-2940 28,-2940 28,-2940 58,-2940 58,-2940 64,-2940 70,-2946 70,-2952 70,-2952 70,-2964 70,-2964 70,-2970 64,-2976 58,-2976"/>
<text xml:space="preserve" text-anchor="middle" x="43" y="-2954.7" font-family="Times,serif" font-size="9.00">78</text>
</g>
<!-- n79 -->
<g id="node79" class="node">
<title>n79</title>
<path fill="#f8fafc" stroke="#94a3b8" d="M58,-3030C58,-3030 28,-3030 28,-3030 22,-3030 16,-3024 16,-3018 16,-3018 16,-3006 16,-3006 16,-3000 22,-2994 28,-2994 28,-2994 58,-2994 58,-2994 64,-2994 70,-3000 70,-3006 70,-3006 70,-3018 70,-3018 70,-3024 64,-3030 58,-3030"/>
<text xml:space="preserve" text-anchor="middle" x="43" y="-3008.7" font-family="Times,serif" font-size="9.00">79</text>
</g>
<!-- n80 -->
<g id="node80" class="node">
<title>n80</title>
<path fill="#f8fafc" stroke="#94a3b8" d="M58,-3736C58,-3736 28,-3736 28,-3736 22,-3736 16,-3730 16,-3724 16,-3724 16,-3712 16,-3712 16,-3706 22,-3700 28,-3700 28,-3700 58,-3700 58,-3700 64,-3700 70,-3706 70,-3712 70,-3712 70,-3724 70,-3724 70,-3730 64,-3736 58,-3736"/>
<text xml:space="preserve" text-anchor="middle" x="43" y="-3714.7" font-family="Times,serif" font-size="9.00">80</text>
</g>
<!-- n81 -->
<g id="node81" class="node">
<title>n81</title>
<path fill="#f8fafc" stroke="#94a3b8" d="M58,-3790C58,-3790 28,-3790 28,-3790 22,-3790 16,-3784 16,-3778 16,-3778 16,-3766 16,-3766 16,-3760 22,-3754 28,-3754 28,-3754 58,-3754 58,-3754 64,-3754 70,-3760 70,-3766 70,-3766 70,-3778 70,-3778 70,-3784 64,-3790 58,-3790"/>
<text xml:space="preserve" text-anchor="middle" x="43" y="-3768.7" font-family="Times,serif" font-size="9.00">81</text>
</g>
<!-- n82 -->
<g id="node82" class="node">
<title>n82</title>
<path fill="#f8fafc" stroke="#94a3b8" d="M58,-3844C58,-3844 28,-3844 28,-3844 22,-3844 16,-3838 16,-3832 16,-3832 16,-3820 16,-3820 16,-3814 22,-3808 28,-3808 28,-3808 58,-3808 58,-3808 64,-3808 70,-3814 70,-3820 70,-3820 70,-3832 70,-3832 70,-3838 64,-3844 58,-3844"/>
<text xml:space="preserve" text-anchor="middle" x="43" y="-3822.7" font-family="Times,serif" font-size="9.00">82</text>
</g>
<!-- n83 -->
<g id="node83" class="node">
<title>n83</title>
<path fill="#f8fafc" stroke="#94a3b8" d="M58,-3898C58,-3898 28,-3898 28,-3898 22,-3898 16,-3892 16,-3886 16,-3886 16,-3874 16,-3874 16,-3868 22,-3862 28,-3862 28,-3862 58,-3862 58,-3862 64,-3862 70,-3868 70,-3874 70,-3874 70,-3886 70,-3886 70,-3892 64,-3898 58,-3898"/>
<text xml:space="preserve" text-anchor="middle" x="43" y="-3876.7" font-family="Times,serif" font-size="9.00">83</text>
</g>
<!-- n84 -->
<g id="node84" class="node">
<title>n84</title>
<path fill="#f8fafc" stroke="#94a3b8" d="M58,-3952C58,-3952 28,-3952 28,-3952 22,-3952 16,-3946 16,-3940 16,-3940 16,-3928 16,-3928 16,-3922 22,-3916 28,-3916 28,-3916 58,-3916 58,-3916 64,-3916 70,-3922 70,-3928 70,-3928 70,-3940 70,-3940 70,-3946 64,-3952 58,-3952"/>
<text xml:space="preserve" text-anchor="middle" x="43" y="-3930.7" font-family="Times,serif" font-size="9.00">84</text>
</g>
<!-- n85 -->
<g id="node85" class="node">
<title>n85</title>
<path fill="#f8fafc" stroke="#94a3b8" d="M58,-4006C58,-4006 28,-4006 28,-4006 22,-4006 16,-4000 16,-3994 16,-3994 16,-3982 16,-3982 16,-3976 22,-3970 28,-3970 28,-3970 58,-3970 58,-3970 64,-3970 70,-3976 70,-3982 70,-3982 70,-3994 70,-3994 70,-4000 64,-4006 58,-4006"/>
<text xml:space="preserve" text-anchor="middle" x="43" y="-3984.7" font-family="Times,serif" font-size="9.00">85</text>
</g>
</g>
</svg>
